<svg width="110" height="125" viewBox="0 0 400 450" xmlns="http://www.w3.org/2000/svg">
  <defs>
    <linearGradient id="bodyGrad" x1="0%" y1="0%" x2="100%" y2="100%">
      <stop offset="0%" stop-color="#ffffff"/>
      <stop offset="100%" stop-color="#e6e6e6"/>
    </linearGradient>

    <linearGradient id="shineGrad" x1="0%" y1="0%" x2="0%" y2="100%">
      <stop offset="0%" stop-color="#ffffff" stop-opacity="0.8"/>
      <stop offset="100%" stop-color="#ffffff" stop-opacity="0"/>
    </linearGradient>

    <filter id="innerShadow">
      <feOffset dx="0" dy="2"/>
      <feGaussianBlur stdDeviation="3" result="offset-blur"/>
      <feComposite operator="out" in="SourceGraphic" in2="offset-blur"/>
      <feColorMatrix type="matrix"
        values="0 0 0 0 0
                0 0 0 0 0
                0 0 0 0 0
                0 0 0 0.15 0"/>
      <feComposite operator="over" in="SourceGraphic"/>
    </filter>

    <style>
      @keyframes hop {
        0%, 12%, 100% { transform: translateY(0); }
        6% { transform: translateY(-18px); }
      }

      @keyframes wave {
        0%, 18%, 100% { transform: rotate(-10deg); }
        6% { transform: rotate(-55deg); }
        9% { transform: rotate(-25deg); }
        12% { transform: rotate(-55deg); }
        15% { transform: rotate(-25deg); }
      }

      @keyframes wink {
        0%, 30%, 100% { transform: scaleY(1); }
        20% { transform: scaleY(0.15); }
        22% { transform: scaleY(1); }
      }

      @keyframes usoBlink {
        0%, 40%, 100% { opacity: 1; }
        34% { opacity: 0.3; }
        36% { opacity: 1; filter: drop-shadow(0 0 6px #E30613); }
      }

      @keyframes ledPulse {
        0%,100% { opacity:0.4; }
        50% { opacity:1; }
      }

      #robot { transform-origin: 200px 250px; animation: hop 6s ease-in-out infinite; }
      #armR { transform-origin: 285px 235px; animation: wave 6s ease-in-out infinite; }
      #eyeR { transform-origin: 220px 138px; animation: wink 6s ease-in-out infinite; }
      #usoGroup { animation: usoBlink 6s linear infinite; }
      .led { animation: ledPulse 3s ease-in-out infinite; }
    </style>
  </defs>

  <g id="robot">
    <ellipse cx="200" cy="405" rx="75" ry="18" fill="rgba(0,0,0,0.08)"/>

    <rect x="85" y="215" width="60" height="95" rx="30" fill="url(#bodyGrad)" />
    <circle cx="115" cy="240" r="5" fill="#ccc"/>
    <circle cx="115" cy="270" r="5" fill="#ccc"/>

    <rect id="armR" x="255" y="215" width="60" height="95" rx="30" fill="url(#bodyGrad)" />
    <circle cx="285" cy="240" r="5" fill="#ccc"/>
    <circle cx="285" cy="270" r="5" fill="#ccc"/>

    <path d="M95,210
             Q95,150 200,150
             Q305,150 305,210
             L305,310
             Q305,380 200,380
             Q95,380 95,310 Z"
          fill="url(#bodyGrad)" filter="url(#innerShadow)"/>

    <path d="M110,210
             Q110,165 200,165
             Q290,165 290,210"
          fill="url(#shineGrad)" />

    <line x1="130" y1="250" x2="270" y2="250"
          stroke="#d0d0d0" stroke-width="2" stroke-linecap="round"/>

    <circle cx="200" cy="300" r="8" fill="#E30613" class="led"/>

    <rect x="120" y="70" width="160" height="120" rx="60"
          fill="url(#bodyGrad)" stroke="#eee" stroke-width="1"/>

    <rect x="150" y="110" width="100" height="55" rx="27" fill="#111"/>

    <circle cx="180" cy="138" r="10" fill="#fff"/>
    <circle id="eyeR" cx="220" cy="138" r="10" fill="#fff"/>

    <g id="chest-display">
      <rect x="150" y="205" width="100" height="85" rx="20" fill="#111"/>
      <rect x="160" y="215" width="80" height="65" rx="15" fill="#fff"/>

      <g id="usoGroup">
        <text x="200" y="255"
              font-family="sans-serif"
              font-weight="900"
              font-size="28"
              text-anchor="middle"
              fill="#E30613">USO</text>
        <rect x="175" y="270" width="50" height="4"
              rx="2" fill="#E30613" opacity="0.6"/>
      </g>
    </g>

  </g>
</svg>
